/* XPM */
static const char *const icon_xpm[] = {
/* columns rows colors chars-per-pixel */
"32 32 2 1 ",
"  c #9B0000",
". c white",
/* pixels */
"                                ",
"                                ",
"                                ",
"        ................        ",
"        ................        ",
"        ................        ",
"        ................        ",
"        ................        ",
"        ......                  ",
"        ......                  ",
"        ......                  ",
"        ......                  ",
"        ......                  ",
"        ......                  ",
"        ...............         ",
"        ...............         ",
"        ...............         ",
"        ...............         ",
"        ...............         ",
"        ......                  ",
"        ......                  ",
"        ......                  ",
"        ......                  ",
"        ......                  ",
"        ......                  ",
"        ......                  ",
"        ......                  ",
"        ......                  ",
"        ......                  ",
"                                ",
"                                ",
"                                "
};
